<?xml version="1.0" encoding="utf-8"?>
<!-- Svg Vector Icons : http://www.onlinewebfonts.com/icon -->
<!DOCTYPE svg PUBLIC "-//W3C//DTD SVG 1.1//EN" "http://www.w3.org/Graphics/SVG/1.1/DTD/svg11.dtd">
<svg version="1.1" xmlns="http://www.w3.org/2000/svg" xmlns:xlink="http://www.w3.org/1999/xlink" x="0px" y="0px" viewBox="0 0 1000 1000" enable-background="new 0 0 1000 1000" xml:space="preserve" fill="#BBB">
<metadata> Svg Vector Icons : http://www.onlinewebfonts.com/icon </metadata>
<g><g transform="translate(0.000000,511.000000) scale(0.100000,-0.100000)"><path d="M4506.3,4992.5C2344.6,4750.7,613.4,3173.8,192.2,1058.2c-280.9-1406.6,87.5-2893.8,1006-4033.3c184.2-230.2,614.7-642.3,861-828.7c1049.8-785,2378.1-1123.4,3664.9-930.1c1949.9,292.4,3545.3,1742.7,4031,3665c356.8,1415.8,46,2939.8-838,4123.1c-186.5,246.3-598.5,676.8-828.8,861c-672.2,541-1429.6,881.7-2292.9,1031.3C5480.1,5001.7,4805.6,5024.7,4506.3,4992.5z M5691.9,3991c1190.2-230.2,2175.5-941.6,2755.6-1986.7c209.5-382.1,393.6-916.2,435.1-1277.7l16.1-131.2h-748.2h-748.2l-39.1,145c-241.7,870.2-888.6,1507.9-1774.9,1749.6c-156.5,41.4-244,48.3-587,48.3c-345.3,0-430.5-6.9-591.6-50.6C3626.9,2276,3035.3,1758,2733.7,1021.3c-41.4-101.3-87.5-239.4-103.6-303.9l-27.6-122h-755.1h-752.8l9.2,64.5c135.8,874.8,501.9,1604.6,1111.9,2216.9c409.8,409.8,755.1,646.9,1268.5,865.6c340.7,145,690.6,237.1,1125.7,292.4C4784.9,4055.5,5500.8,4027.9,5691.9,3991z M5489.3,1511.7c435.1-163.4,785-518,920.8-939.3c66.7-207.2,80.6-577.8,32.2-794.2c-66.7-278.6-181.8-481.2-405.2-702.1c-221-223.3-423.6-338.4-702.1-405.2c-216.4-48.3-587-34.5-794.2,32.2C4115-1156.5,3765-815.7,3601.6-376c-76,207.2-96.7,612.4-41.5,833.4c131.2,527.2,547.9,950.8,1072.8,1093.5C4837.8,1606.1,5291.3,1585.3,5489.3,1511.7z M2630.1-491.2c41.4-177.3,149.6-442,253.2-619.3c444.3-757.4,1243.1-1217.8,2117.9-1217.8c1088.9,0,2046.6,720.5,2348.1,1768l55.3,188.8h745.9h748.2l-16.1-124.3c-62.1-543.3-375.2-1277.7-759.7-1786.4c-170.3-225.6-598.5-637.7-842.6-812.6c-264.7-188.8-785-448.9-1082-541c-699.8-218.7-1415.8-244-2120.2-76c-962.3,227.9-1830.2,844.9-2375.8,1682.8c-297,460.4-506.5,1003.7-587,1526.3l-20.7,131.2h755.1h752.8L2630.1-491.2z"/><path d="M4702,1035.1c-402.9-128.9-667.6-497.3-667.6-927.8c0-382.1,214.1-709,573.2-879.4c140.4-66.7,170.4-71.4,396-71.4c232.5,0,248.6,2.3,414.4,85.2C5632-652.3,5781.7-500.4,5883-284c69.1,142.7,73.7,172.7,73.7,396c0,223.3-4.6,253.2-71.4,393.7c-172.7,366-499.5,575.5-888.6,570.9C4902.3,1076.6,4773.3,1058.2,4702,1035.1z"/></g></g>
</svg>